<svg width="95" height="27" viewBox="0 0 95 27" fill="none" xmlns="http://www.w3.org/2000/svg">
<path d="M35.1412 12.49L38.7043 7.59683C38.7228 7.57351 38.7343 7.54546 38.7376 7.51589C38.7397 7.48643 38.7343 7.45692 38.7218 7.43018C38.7083 7.40352 38.6876 7.38119 38.6621 7.36575C38.6366 7.35031 38.6072 7.34238 38.5773 7.34289H36.8315C36.7551 7.34309 36.6799 7.36165 36.6123 7.39701C36.5446 7.43237 36.4864 7.48348 36.4426 7.54604L33.9762 11.1171L31.4368 7.54128C31.3939 7.47935 31.3368 7.42871 31.2701 7.39368C31.2031 7.35865 31.1283 7.34118 31.0527 7.34289H29.2687C29.239 7.34279 29.2099 7.35104 29.1846 7.36669C29.1596 7.38201 29.1392 7.40399 29.1259 7.43018C29.1125 7.45608 29.1064 7.48519 29.1084 7.5143C29.1101 7.54394 29.12 7.57253 29.137 7.59683L32.7874 12.6931L29.01 17.6022C28.9919 17.6261 28.9808 17.6547 28.9783 17.6847C28.9748 17.7142 28.9804 17.7441 28.9942 17.7704C29.0072 17.7972 29.0276 17.8197 29.0529 17.8355C29.0782 17.8511 29.1073 17.8594 29.137 17.8593H30.8686C30.9425 17.8608 31.0155 17.8438 31.0813 17.8101C31.1474 17.7772 31.205 17.7294 31.2495 17.6704L33.8905 14.0819L36.4553 17.6656C36.4983 17.7262 36.5555 17.7753 36.622 17.8085C36.6873 17.8435 36.7606 17.861 36.8346 17.8593H38.6329C38.6619 17.8596 38.6904 17.8519 38.7154 17.8371C38.7405 17.8219 38.7609 17.8001 38.7743 17.774C38.7878 17.748 38.7938 17.7187 38.7916 17.6895C38.7887 17.6603 38.7784 17.6324 38.7614 17.6085L35.1412 12.49Z" fill="#1B2651"/>
<path d="M47.0559 7.86759C46.1846 7.38942 45.2022 7.15066 44.2086 7.1756C43.213 7.15634 42.2292 7.39355 41.3517 7.86442C40.5353 8.30806 39.8592 8.97102 39.3995 9.77851C38.9388 10.6546 38.6981 11.6296 38.6981 12.6195C38.6981 13.6093 38.9388 14.5844 39.3995 15.4605C39.8481 16.2726 40.5179 16.9407 41.3311 17.3873C42.2157 17.8638 43.2088 18.1028 44.2133 18.0808C44.9497 18.0917 45.6834 17.9906 46.3893 17.7809C46.9667 17.6046 47.5087 17.3285 47.9907 16.9651C48.4025 16.6568 48.7498 16.2707 49.0129 15.8287C49.2105 15.4925 49.345 15.1229 49.4096 14.7383C49.4155 14.7036 49.4096 14.6679 49.393 14.6369C49.3763 14.6058 49.3498 14.5812 49.3176 14.5669C49.2961 14.5575 49.2728 14.5526 49.2493 14.5526H47.4241C47.3868 14.5555 47.3513 14.57 47.3225 14.5939C47.2944 14.6183 47.275 14.6512 47.267 14.6875C47.2278 14.8519 47.1624 15.0089 47.0734 15.1526C46.9268 15.3739 46.7387 15.5648 46.5195 15.7144C46.2391 15.908 45.927 16.0509 45.5973 16.1366C45.1657 16.2481 44.721 16.3014 44.2752 16.2953C43.6236 16.313 42.9786 16.1603 42.404 15.8525C41.8869 15.5587 41.47 15.1164 41.2073 14.5828C41.0218 14.2035 40.8991 13.7967 40.8438 13.3781H49.1081C49.233 13.3782 49.3529 13.3291 49.442 13.2415C49.5311 13.1539 49.5821 13.0348 49.5842 12.9099V12.5925C49.6016 11.6173 49.3763 10.6531 48.9287 9.78645C48.5012 8.98063 47.8511 8.3146 47.0559 7.86759ZM40.8661 11.6767C40.93 11.316 41.0483 10.9671 41.2168 10.6419C41.4866 10.1097 41.9065 9.6682 42.4246 9.3722C42.9812 9.07778 43.6045 8.93234 44.234 8.95002C44.8346 8.93247 45.4287 9.07839 45.9528 9.3722C46.3943 9.63053 46.7536 10.0086 46.9892 10.4626C47.181 10.8447 47.2943 11.2613 47.3225 11.6878L40.8661 11.6767Z" fill="#1B2651"/>
<path d="M71.4645 7.86759C70.5932 7.38942 69.6108 7.15066 68.6172 7.1756C67.6215 7.15591 66.6376 7.39314 65.7603 7.86442C64.9433 8.30716 64.2669 8.97034 63.8082 9.77851C63.3505 10.6556 63.1115 11.6302 63.1115 12.6195C63.1115 13.6088 63.3505 14.5834 63.8082 15.4605C64.2575 16.2714 64.9264 16.9393 65.7381 17.3873C66.6231 17.8629 67.6159 18.1018 68.6204 18.0808C69.3567 18.0917 70.0904 17.9906 70.7964 17.7809C71.3752 17.6047 71.9188 17.3286 72.4025 16.9651C72.8137 16.6575 73.1595 16.2712 73.4199 15.8287C73.6199 15.4934 73.755 15.1235 73.8183 14.7383C73.823 14.7153 73.823 14.6915 73.8183 14.6685C73.8117 14.6462 73.8003 14.6256 73.7849 14.6082C73.77 14.5902 73.7509 14.576 73.7294 14.5669C73.7085 14.5574 73.6857 14.5525 73.6627 14.5526H71.8327C71.7949 14.5542 71.7587 14.5682 71.7296 14.5923C71.7009 14.6172 71.6809 14.6505 71.6724 14.6875C71.6348 14.8527 71.5687 15.01 71.4772 15.1526C71.3325 15.3738 71.1459 15.5646 70.9281 15.7144C70.6478 15.907 70.3364 16.0499 70.0075 16.1366C69.5752 16.2472 69.1301 16.3006 68.6839 16.2953C68.0322 16.3136 67.387 16.1609 66.8126 15.8525C66.2943 15.5593 65.8762 15.1169 65.6127 14.5828C65.428 14.2033 65.3053 13.7965 65.2493 13.3781H73.5024C73.6239 13.3784 73.7409 13.3321 73.8294 13.2489C73.9179 13.1657 73.9713 13.0518 73.9786 12.9306V12.6052C73.9965 11.6299 73.7712 10.6655 73.3231 9.79914C72.9021 8.99002 72.2568 8.31939 71.4645 7.86759V7.86759ZM65.2668 11.6767C65.33 11.3159 65.4483 10.9669 65.6175 10.6419C65.8886 10.1106 66.3082 9.66952 66.8253 9.3722C67.3799 9.07638 68.0016 8.92929 68.6299 8.94526C69.2311 8.92694 69.8259 9.0729 70.3504 9.36744C70.7928 9.62406 71.152 10.0026 71.3852 10.4578C71.5791 10.8393 71.6941 11.2561 71.7232 11.6831L65.2668 11.6767Z" fill="#1B2651"/>
<path d="M77.7941 1.66016H75.9943C75.9522 1.66016 75.9118 1.67688 75.8821 1.70664C75.8523 1.73641 75.8356 1.77678 75.8356 1.81887V17.7553C75.8356 17.7974 75.8523 17.8378 75.8821 17.8676C75.9118 17.8973 75.9522 17.9141 75.9943 17.9141H77.7941C77.8362 17.9141 77.8766 17.8973 77.9063 17.8676C77.9361 17.8378 77.9528 17.7974 77.9528 17.7553V1.81887C77.9528 1.77678 77.9361 1.73641 77.9063 1.70664C77.8766 1.67688 77.8362 1.66016 77.7941 1.66016Z" fill="#1B2651"/>
<path d="M82.0586 6.61328H80.2588C80.2167 6.61328 80.1763 6.63001 80.1466 6.65977C80.1168 6.68953 80.1001 6.7299 80.1001 6.772V17.7487C80.1001 17.7908 80.1168 17.8311 80.1466 17.8609C80.1763 17.8906 80.2167 17.9074 80.2588 17.9074H82.0586C82.1007 17.9074 82.1411 17.8906 82.1708 17.8609C82.2006 17.8311 82.2173 17.7908 82.2173 17.7487V6.77358C82.2175 6.75261 82.2136 6.7318 82.2057 6.71236C82.1978 6.69292 82.1862 6.67523 82.1714 6.66033C82.1567 6.64542 82.1391 6.63359 82.1197 6.62552C82.1004 6.61744 82.0796 6.61328 82.0586 6.61328V6.61328Z" fill="#1B2651"/>
<path d="M93.6162 9.0722C93.3105 8.49177 92.8378 8.01633 92.2592 7.70725C91.6057 7.37489 90.8795 7.21121 90.1467 7.23111C89.3658 7.22433 88.5977 7.43007 87.9247 7.82629C87.4208 8.11847 86.9788 8.50608 86.6232 8.96744V7.55965C86.623 7.53891 86.6187 7.51842 86.6105 7.49934C86.6033 7.47932 86.5913 7.46134 86.5756 7.44696C86.5615 7.43164 86.5442 7.41971 86.5248 7.41204C86.5052 7.40405 86.4842 7.39975 86.4629 7.39935H84.6282C84.607 7.39975 84.586 7.40405 84.5663 7.41204C84.547 7.41971 84.5296 7.43164 84.5155 7.44696C84.4998 7.46134 84.4878 7.47932 84.4806 7.49934C84.4725 7.51842 84.4681 7.53891 84.4679 7.55965V17.7602C84.4683 17.7814 84.4726 17.8024 84.4806 17.8221C84.4976 17.8602 84.5282 17.8908 84.5663 17.9078C84.586 17.9158 84.607 17.9201 84.6282 17.9205H86.4582C86.4794 17.9201 86.5004 17.9158 86.5201 17.9078C86.5582 17.8908 86.5887 17.8602 86.6058 17.8221C86.6138 17.8024 86.6181 17.7814 86.6185 17.7602V12.1655C86.609 11.6284 86.7403 11.0982 86.9994 10.6276C87.245 10.1862 87.5996 9.81522 88.0294 9.54992C88.4681 9.2864 88.9715 9.15011 89.4833 9.15631C89.9888 9.1327 90.4913 9.2468 90.9371 9.48644C91.292 9.69851 91.5666 10.0222 91.718 10.407C91.8865 10.8419 91.9685 11.3056 91.9592 11.7719V17.7427C91.9592 17.7848 91.9759 17.8252 92.0057 17.855C92.0355 17.8847 92.0758 17.9015 92.1179 17.9015H93.9399C93.9609 17.9014 93.9817 17.8971 94.0011 17.8889C94.0204 17.8808 94.0379 17.8688 94.0526 17.8538C94.0676 17.8391 94.0796 17.8216 94.0877 17.8023C94.0959 17.7829 94.1002 17.7622 94.1003 17.7412V11.1831C94.114 10.4505 93.9478 9.72564 93.6162 9.0722V9.0722Z" fill="#1B2651"/>
<path d="M79.9163 3.29229C79.9149 3.13467 79.9463 2.97849 80.0084 2.83361C80.0714 2.68924 80.1645 2.55994 80.2813 2.45428C80.398 2.34814 80.536 2.26806 80.6861 2.21938C80.8361 2.17162 80.9946 2.15594 81.1511 2.17336C81.3113 2.15518 81.4735 2.17085 81.6272 2.21938C81.7782 2.26856 81.9175 2.34794 82.0367 2.45269C82.1563 2.55802 82.2526 2.68724 82.3192 2.83202C82.3892 2.97536 82.4256 3.13278 82.4256 3.29229C82.4256 3.4518 82.3892 3.60922 82.3192 3.75256C82.2526 3.89646 82.1569 4.02506 82.0383 4.1303C81.9191 4.23554 81.7798 4.31546 81.6288 4.3652C81.4755 4.41556 81.3132 4.43287 81.1527 4.41598C80.997 4.42911 80.8402 4.40965 80.6924 4.35885C80.5433 4.30843 80.4061 4.22794 80.2893 4.12237C80.1734 4.01607 80.081 3.88679 80.0178 3.74278C79.9547 3.59877 79.9223 3.44318 79.9227 3.28594L79.9163 3.29229Z" fill="#1B2651"/>
<path d="M61.1051 9.62891C60.6989 8.86531 60.0891 8.22915 59.3434 7.791C58.432 7.259 57.3668 7.0525 56.3226 7.20534C55.2784 7.35817 54.3171 7.86129 53.5964 8.63218V7.52118C53.5963 7.50019 53.592 7.47941 53.5839 7.46007C53.5757 7.44072 53.5638 7.4232 53.5488 7.4085C53.5341 7.3935 53.5165 7.38157 53.4972 7.3734C53.4778 7.36522 53.4571 7.36097 53.4361 7.36089H51.6109C51.5896 7.36076 51.5685 7.36491 51.5489 7.37309C51.5293 7.38127 51.5115 7.39331 51.4966 7.4085C51.4819 7.42333 51.4702 7.44092 51.4623 7.46025C51.4544 7.47959 51.4504 7.5003 51.4506 7.52118V22.4197C51.4503 22.4628 51.4668 22.5043 51.4966 22.5355C51.5272 22.5657 51.568 22.5832 51.6109 22.5847H53.4361C53.479 22.5832 53.5198 22.5657 53.5503 22.5355C53.5801 22.5043 53.5966 22.4628 53.5964 22.4197V16.5473C53.9197 16.9023 54.2942 17.2072 54.7074 17.4519C55.3959 17.8625 56.1833 18.0776 56.9849 18.0741C57.826 18.0791 58.6532 17.86 59.3815 17.4392C60.1296 16.9992 60.7356 16.3536 61.1274 15.5791C61.5887 14.6482 61.8139 13.6179 61.7828 12.5794C61.8124 11.5542 61.5791 10.5385 61.1051 9.62891V9.62891ZM56.5834 16.1235C54.4709 16.1235 53.6265 14.5363 53.6265 12.5826C53.6265 10.6288 54.5344 9.04167 56.5834 9.04167C58.6324 9.04167 59.5418 10.6288 59.5418 12.5826C59.5418 14.5363 58.6832 16.1362 56.5834 16.1362V16.1235Z" fill="#1B2651"/>
<g style="mix-blend-mode:multiply" opacity="0.6">
<path d="M19.9886 5.82617H9.38813C9.15024 5.8259 8.91841 5.90124 8.72614 6.04131C8.53386 6.18139 8.39107 6.37894 8.31839 6.60546L7.15502 10.2305L6.74077 11.5224C6.69825 11.6408 6.62426 11.7454 6.52675 11.8249C6.42924 11.9044 6.31191 11.9558 6.18737 11.9736C6.06283 11.9914 5.9358 11.9749 5.81994 11.9258C5.70407 11.8768 5.60376 11.7972 5.52979 11.6954C5.60648 11.8441 5.71537 11.9739 5.84853 12.0752C5.98169 12.1765 6.13577 12.2468 6.29955 12.2811H6.32653L6.38049 12.289C6.42992 12.2962 6.47974 12.3005 6.52968 12.3017H18.5539H18.6221C18.6827 12.3017 18.7432 12.2969 18.803 12.2874L18.8824 12.27H18.8935L18.9681 12.2477L19.003 12.235L19.0713 12.2081L19.1443 12.1731L19.1633 12.162C19.1895 12.148 19.2149 12.1326 19.2395 12.116H19.249C19.3663 12.0355 19.4675 11.9338 19.5474 11.816V11.816L19.595 11.7367C19.5986 11.7319 19.6013 11.7265 19.603 11.7208C19.6157 11.697 19.6284 11.6732 19.6395 11.6478C19.653 11.6184 19.6647 11.5882 19.6744 11.5573V11.543L19.6839 11.5145C19.6839 11.5065 21.0488 7.32126 21.0488 7.32126C21.1082 7.15189 21.126 6.97078 21.101 6.79307C21.076 6.61537 21.0087 6.44625 20.9049 6.29987C20.8011 6.15348 20.6638 6.03409 20.5043 5.95167C20.3449 5.86926 20.1681 5.82623 19.9886 5.82617V5.82617Z" fill="#E640FF"/>
</g>
<g style="mix-blend-mode:multiply">
<path d="M18.7937 12.2813L18.8746 12.2638H18.8857L18.9603 12.2416L18.9936 12.2289L19.0635 12.2019L19.1365 12.167L19.1555 12.1559L19.2317 12.1099H19.2412C19.3585 12.0294 19.4597 11.9276 19.5396 11.8099V11.8099C19.557 11.7844 19.5729 11.7579 19.5872 11.7306L19.5968 11.7147C19.6095 11.6909 19.6206 11.6671 19.6317 11.6417C19.574 11.7418 19.4922 11.8258 19.3938 11.8862C19.2953 11.9466 19.1833 11.9813 19.068 11.9873C18.9526 11.9933 18.8376 11.9704 18.7334 11.9205C18.6292 11.8707 18.5392 11.7955 18.4715 11.702L12.5308 0.599939C12.4332 0.418451 12.2883 0.266815 12.1114 0.16117C11.9345 0.0555257 11.7322 -0.000173055 11.5261 4.03908e-07H1.12562C0.931073 -3.66999e-05 0.739842 0.0503619 0.570588 0.146281C0.401334 0.2422 0.259839 0.380361 0.159911 0.54728C0.0599838 0.714199 0.00503866 0.904177 0.000436986 1.09867C-0.00416469 1.29316 0.0417329 1.48552 0.133654 1.65698L5.46169 11.5718C5.47118 11.5938 5.48233 11.615 5.49502 11.6353L5.52358 11.6877C5.60396 11.8348 5.71475 11.9631 5.84857 12.0641C5.98238 12.1651 6.13617 12.2364 6.2997 12.2734H6.32827L6.38064 12.2813C6.418 12.2863 6.45563 12.289 6.49333 12.2892H18.6223" fill="url(#paint0_linear_659_1666)"/>
</g>
<g style="mix-blend-mode:multiply" opacity="0.6">
<path d="M5.5696 20.6489H16.1701C16.408 20.6491 16.6398 20.5738 16.8321 20.4337C17.0244 20.2937 17.1672 20.0961 17.2398 19.8696L18.4032 16.2525L18.8175 14.9606C18.8598 14.8421 18.9337 14.7373 19.0311 14.6577C19.1285 14.578 19.2458 14.5264 19.3704 14.5085C19.4949 14.4905 19.622 14.5069 19.738 14.5558C19.8539 14.6047 19.9544 14.6843 20.0285 14.786C19.9528 14.6384 19.8456 14.5093 19.7145 14.4078C19.5834 14.3064 19.4316 14.235 19.2698 14.1987H19.2428L19.1889 14.1908C19.1394 14.1842 19.0896 14.1805 19.0397 14.1797H6.93931C6.87867 14.1802 6.81818 14.1855 6.75837 14.1956L6.67901 14.2114H6.66791L6.59331 14.2321L6.55839 14.2448L6.49014 14.2717L6.41714 14.3082L6.39809 14.3178C6.37194 14.3318 6.34651 14.3472 6.32191 14.3638H6.31239C6.1951 14.4443 6.0939 14.546 6.014 14.6638V14.6638L5.96639 14.7431V14.759C5.95369 14.7828 5.94099 14.8082 5.92988 14.832C5.91719 14.8622 5.90449 14.8923 5.89497 14.9225V14.9368L5.88544 14.9653C5.88544 14.9748 4.52051 19.1585 4.52051 19.1585C4.46243 19.3268 4.44514 19.5064 4.47005 19.6826C4.49497 19.8588 4.56138 20.0266 4.66382 20.1721C4.76625 20.3176 4.90179 20.4367 5.05927 20.5196C5.21674 20.6025 5.39165 20.6468 5.5696 20.6489V20.6489Z" fill="#FF7D00"/>
</g>
<g style="mix-blend-mode:multiply">
<path d="M6.76172 14.1992L6.68077 14.2151H6.66966L6.59507 14.2357L6.56173 14.2484L6.4919 14.2754L6.41889 14.3119L6.39985 14.3214L6.32366 14.3675H6.31414C6.19685 14.448 6.09565 14.5497 6.01576 14.6674C5.99839 14.6929 5.98249 14.7194 5.96815 14.7468L5.95862 14.7627C5.94593 14.7865 5.93482 14.8119 5.92371 14.8357C5.98177 14.736 6.06377 14.6524 6.16229 14.5924C6.2608 14.5325 6.37272 14.498 6.4879 14.4922C6.60309 14.4863 6.71792 14.5093 6.82198 14.559C6.92605 14.6088 7.01607 14.6837 7.08391 14.7769L13.0246 25.8774C13.1219 26.0592 13.2668 26.2111 13.4437 26.3171C13.6207 26.423 13.823 26.4789 14.0292 26.4789H24.4377C24.6301 26.4767 24.8187 26.4252 24.9856 26.3295C25.1525 26.2337 25.2921 26.0968 25.3911 25.9318C25.49 25.7668 25.5451 25.5791 25.551 25.3868C25.557 25.1945 25.5135 25.0038 25.4249 24.8331L20.1032 14.9039C20.0937 14.8819 20.0826 14.8607 20.0699 14.8404L20.0413 14.7896C19.9682 14.6499 19.8659 14.5276 19.7414 14.4309C19.603 14.3181 19.4398 14.2398 19.2652 14.2024H19.2366L19.1843 14.1945C19.1469 14.1894 19.1093 14.1868 19.0716 14.1865H6.94265" fill="url(#paint1_linear_659_1666)"/>
</g>
<defs>
<linearGradient id="paint0_linear_659_1666" x1="4.08523" y1="10.2709" x2="15.1267" y2="-0.153555" gradientUnits="userSpaceOnUse">
<stop stop-color="#FF7D00"/>
<stop offset="0.1362" stop-color="#FC771C"/>
<stop offset="0.369792" stop-color="#F56565"/>
<stop offset="0.8607" stop-color="#EA4AD8"/>
<stop offset="1" stop-color="#E640FF"/>
</linearGradient>
<linearGradient id="paint1_linear_659_1666" x1="10.008" y1="24.4601" x2="21.0521" y2="14.0378" gradientUnits="userSpaceOnUse">
<stop stop-color="#FF7D00"/>
<stop offset="0.1362" stop-color="#FC771C"/>
<stop offset="0.369792" stop-color="#F56565"/>
<stop offset="0.8607" stop-color="#EA4AD8"/>
<stop offset="1" stop-color="#E640FF"/>
</linearGradient>
</defs>
</svg>
